# xmcd CD database file
#
# Track frame offsets:
#	150
#	29073
#	49433
#	85610
#	108585
#	130034
#	156484
#	183123
#	195283
#	221565
#	253044
#
# Disc length: 3800 seconds
#
# Revision: 6
# Processed by: cddbd v1.4PL0 Copyright (c) Steve Scherf et al.
# Submitted via: CDex 1.50Beta7
#
DISCID=970ed60b
DTITLE=Matt Flinner Quartet - Walking on the Moon
DYEAR=2003
DGENRE=Jazz
TTITLE0=Men From Boise
TTITLE1=Troubled Sleep
TTITLE2=Caravan/Cissy Strut
TTITLE3=Exfoliator
TTITLE4=Ice Queen
TTITLE5=Stufflebeam
TTITLE6=Walking on the Moon
TTITLE7=Walk the Plank
TTITLE8=6/16
TTITLE9=Humdinger
TTITLE10=Bonus Track
EXTD=YEAR: 2003
EXTT0=
EXTT1=
EXTT2=
EXTT3=
EXTT4=
EXTT5=
EXTT6=
EXTT7=
EXTT8=
EXTT9=
EXTT10=
PLAYORDER=
